<svg width="24" height="24" viewBox="0 0 24 24" fill="none" xmlns="http://www.w3.org/2000/svg">
<g clip-path="url(#clip0_4_8)">
<path d="M12 23.25C18.2132 23.25 23.25 18.2132 23.25 12C23.25 5.7868 18.2132 0.75 12 0.75C5.7868 0.75 0.75 5.7868 0.75 12C0.75 18.2132 5.7868 23.25 12 23.25Z" stroke="white" stroke-width="2" stroke-miterlimit="10" stroke-linejoin="round"/>
<path d="M19.5 20.25C19.5 16.1078 16.1422 12.75 12 12.75C7.85775 12.75 4.5 16.1078 4.5 20.25" stroke="white" stroke-width="2" stroke-miterlimit="10" stroke-linejoin="round"/>
<path d="M12 12.75C14.4853 12.75 16.5 10.7353 16.5 8.25C16.5 5.76472 14.4853 3.75 12 3.75C9.51472 3.75 7.5 5.76472 7.5 8.25C7.5 10.7353 9.51472 12.75 12 12.75Z" stroke="white" stroke-width="2" stroke-miterlimit="10" stroke-linejoin="round"/>
</g>
<defs>
<clipPath id="clip0_4_8">
<rect width="24" height="24" fill="white"/>
</clipPath>
</defs>
</svg>
