<svg width="24" height="24" viewBox="0 0 24 24" fill="none" xmlns="http://www.w3.org/2000/svg">
<path d="M20.5078 18.1219L14.3859 12L20.5078 5.87813C21.1688 5.21719 21.1688 4.15313 20.5078 3.49219C19.8469 2.83126 18.7828 2.83126 18.1219 3.49219L12 9.61407L5.87813 3.49219C5.21719 2.83126 4.15313 2.83126 3.49219 3.49219C2.83126 4.15313 2.83126 5.21719 3.49219 5.87813L9.61407 12L3.49219 18.1219C2.83126 18.7828 2.83126 19.8469 3.49219 20.5078C4.15313 21.1688 5.21719 21.1688 5.87813 20.5078L12 14.3859L18.1219 20.5078C18.7828 21.1688 19.8469 21.1688 20.5078 20.5078C21.1641 19.8469 21.1641 18.7781 20.5078 18.1219Z" fill="white"/>
</svg>
