<svg width="24" height="24" viewBox="0 0 24 24" fill="none" xmlns="http://www.w3.org/2000/svg">
<path d="M9.6 3C5.62355 3 2.4 6.02208 2.4 9.75C2.4 13.4779 5.62355 16.5 9.6 16.5C13.5764 16.5 16.8 13.4779 16.8 9.75C16.8 6.02208 13.5764 3 9.6 3ZM0 9.75C0 4.77943 4.29806 0.75 9.6 0.75C14.9019 0.75 19.2 4.77943 19.2 9.75C19.2 11.8298 18.4475 13.7448 17.1838 15.2688L23.6485 21.3295C24.1171 21.7689 24.1171 22.4811 23.6485 22.9204C23.1798 23.3598 22.4202 23.3598 21.9515 22.9204L15.4868 16.8598C13.8612 18.0445 11.8184 18.75 9.6 18.75C4.29806 18.75 0 14.7206 0 9.75Z" fill="#9D9D9D"/>
</svg>
